<svg width="434" height="56" viewBox="0 0 434 56" fill="none" xmlns="http://www.w3.org/2000/svg">
<path d="M64.2121 2.79105L62.2185 14.0789H79.6657L72.9357 53.2096H86.5196L93.3741 14.0789H111.07L113.064 2.79105H64.2121Z" fill="#142355"/>
<path d="M234.821 2.79105L218.246 19.7225L207.653 2.79105H195.066L186.218 53.2096H199.179L204.538 22.4817L212.513 36.5287H218.869L231.332 22.607L226.097 53.2096H238.934L247.782 2.79105H234.821Z" fill="#C82814"/>
<path d="M322.681 2.79105L320.561 14.0789H338.134L331.28 53.2096H344.864L351.718 14.0789H369.414L371.408 2.79105H322.681Z" fill="#142355"/>
<path d="M47.5125 8.18357L37.6673 18.0921C43.1507 23.6099 43.1507 32.3902 37.6673 37.9081C32.1839 43.4259 23.4603 43.4259 17.9769 37.9081L8.13171 47.816C18.974 58.728 36.6702 58.728 47.5125 47.816C58.4797 36.9046 58.4797 19.2208 47.5125 8.18357Z" fill="#142355"/>
<path d="M37.6673 18.0921L47.5125 8.18357C36.6702 -2.72785 18.9739 -2.72786 8.13167 8.18357C-2.71059 19.0955 -2.71054 36.9051 8.13171 47.816L17.9769 37.9081C12.4935 32.3902 12.4935 23.6099 17.9769 18.0921C23.4602 12.699 32.3084 12.699 37.6673 18.0921Z" fill="#C82814"/>
<path d="M167.525 8.18357L157.68 18.0921C163.163 23.6099 163.163 32.3902 157.68 37.9081C152.196 43.4259 143.473 43.4259 137.989 37.9081L128.144 47.816C138.986 58.728 156.683 58.728 167.525 47.816C178.367 36.9046 178.367 19.2208 167.525 8.18357Z" fill="#C82814"/>
<path d="M157.68 18.0921L167.525 8.18357C156.683 -2.72785 138.986 -2.72786 128.144 8.18357C117.301 19.0955 117.301 36.9051 128.144 47.816L137.989 37.9081C132.505 32.3902 132.505 23.6099 137.989 18.0921C143.348 12.699 152.196 12.699 157.68 18.0921Z" fill="#142355"/>
<path d="M305.981 8.18357L296.135 18.0921C301.62 23.6099 301.62 32.3902 296.135 37.9081C290.652 43.4259 281.928 43.4259 276.445 37.9081L266.6 47.816C277.442 58.728 295.139 58.728 305.981 47.816C316.823 36.9046 316.823 19.2208 305.981 8.18357Z" fill="#142355"/>
<path d="M296.135 18.0921L305.981 8.18357C295.138 -2.72785 277.442 -2.72786 266.6 8.18357C255.757 19.0955 255.757 36.9051 266.6 47.816L276.445 37.9081C270.962 32.3902 270.962 23.6099 276.445 18.0921C281.804 12.699 290.652 12.699 296.135 18.0921Z" fill="#C82814"/>
<path d="M425.869 8.18357L416.023 18.0921C421.507 23.6099 421.507 32.3902 416.023 37.9081C410.54 43.4259 401.815 43.4259 396.333 37.9081L386.487 47.816C397.33 58.728 415.026 58.728 425.869 47.816C436.71 36.9046 436.71 19.2208 425.869 8.18357Z" fill="#C82814"/>
<path d="M416.023 18.0921L425.869 8.18357C415.026 -2.72786 397.33 -2.72786 386.488 8.18357C375.645 19.0955 375.645 36.9051 386.488 47.816L396.333 37.9081C390.85 32.3902 390.85 23.6099 396.333 18.0921C401.692 12.699 410.54 12.699 416.023 18.0921Z" fill="#142355"/>
</svg>
