<svg width="98" height="56" viewBox="0 0 98 56" fill="none" xmlns="http://www.w3.org/2000/svg">
<path fill-rule="evenodd" clip-rule="evenodd" d="M42.2758 40.825C44.8122 37.029 46.166 32.5661 46.166 28.0008C46.166 24.9695 45.569 21.9678 44.4089 19.1673C43.2489 16.3667 41.5486 13.8221 39.4052 11.6786C37.2617 9.53515 34.7171 7.83487 31.9165 6.67484C29.1159 5.51481 26.1143 4.91775 23.083 4.91775C18.5176 4.91775 14.0548 6.27155 10.2588 8.80794C6.46281 11.3443 3.5042 14.9494 1.7571 19.1673C0.694152 21.7335 0.108701 24.4564 0.013768 27.2038V28.798C0.0566015 30.0376 0.199463 31.277 0.443544 32.504C1.33421 36.9817 3.53265 41.0947 6.76087 44.3229C9.98908 47.5511 14.1021 49.7496 18.5797 50.6402C23.0574 51.5309 27.6986 51.0738 31.9165 49.3267C36.1344 47.5796 39.7394 44.621 42.2758 40.825ZM28.9042 24.1153C29.6727 25.2654 30.0828 26.6175 30.0828 28.0008H30.0859C30.0859 28.9194 29.9049 29.8291 29.5532 30.6778C29.2016 31.5265 28.6861 32.2977 28.0364 32.9471C27.3867 33.5966 26.6153 34.1117 25.7664 34.463C24.9176 34.8143 24.0078 34.9949 23.0891 34.9945C21.7059 34.9945 20.3538 34.5843 19.2036 33.8158C18.0535 33.0473 17.1571 31.9551 16.6278 30.6771C16.0985 29.3992 15.96 27.993 16.2298 26.6364C16.4997 25.2797 17.1658 24.0336 18.1438 23.0555C19.1219 22.0774 20.3681 21.4113 21.7247 21.1414C23.0814 20.8716 24.4876 21.0101 25.7655 21.5394C27.0434 22.0688 28.1357 22.9652 28.9042 24.1153Z" fill="#23E5DB"/>
<path d="M97.849 22.95L97.8506 13.9767H89.0148L83.8387 19.1528L78.6626 13.9767H69.8315V22.95L74.9372 28.0558L69.8315 33.1631V42.0141H78.7742L83.8326 36.9542L88.8895 42.0111H97.849V33.1707L92.7417 28.0634L97.849 22.95Z" fill="#23E5DB"/>
<path fill-rule="evenodd" clip-rule="evenodd" d="M0.013768 28.798C-0.00460498 28.2663 -0.00457369 27.7346 0.013768 27.2038V28.798ZM64.2426 56H50.9554V0H64.2426V56Z" fill="#23E5DB"/>
</svg>
