<svg width="21" height="21" viewBox="0 0 21 21" fill="none" xmlns="http://www.w3.org/2000/svg">
<path d="M10.4999 0.083252C4.74992 0.083252 0.083252 4.74992 0.083252 10.4999C0.083252 16.2499 4.74992 20.9166 10.4999 20.9166C16.2499 20.9166 20.9166 16.2499 20.9166 10.4999C20.9166 4.74992 16.2499 0.083252 10.4999 0.083252ZM15.3333 7.16659C15.177 8.81242 14.4999 12.8124 14.1562 14.6562C14.0103 15.4374 13.7187 15.6978 13.4478 15.7291C12.8437 15.7812 12.3853 15.3333 11.802 14.9478C10.8853 14.3437 10.3645 13.9687 9.47908 13.3853C8.44783 12.7083 9.1145 12.3333 9.70825 11.7291C9.8645 11.5728 12.5312 9.14575 12.5833 8.927C12.5905 8.89387 12.5895 8.85947 12.5804 8.8268C12.5714 8.79412 12.5545 8.76416 12.5312 8.7395C12.4687 8.68742 12.3853 8.70825 12.3124 8.71867C12.2187 8.7395 10.7603 9.70825 7.91659 11.6249C7.49992 11.9062 7.12492 12.052 6.79158 12.0416C6.41658 12.0312 5.70825 11.8333 5.177 11.6562C4.52075 11.4478 4.01033 11.3333 4.052 10.9687C4.07283 10.7812 4.33325 10.5937 4.82284 10.3958C7.8645 9.07283 9.88533 8.19783 10.8958 7.78117C13.7916 6.57284 14.3853 6.3645 14.7812 6.3645C14.8645 6.3645 15.0624 6.38533 15.1874 6.4895C15.2916 6.57283 15.3228 6.68742 15.3333 6.77075C15.3228 6.83325 15.3437 7.02075 15.3333 7.16659Z" fill="white"/>
</svg>
